# xmcd
#
# Track frame offsets:
#	150
#	15462
#	32879
#	50634
#	67072
#	82658
#	103237
#	121552
#	139147
#	156903
#	175513
#	193038
#	209080
#	228508
#	247330
#	266690
#	284318
#	302540
#	321109
#	336589
#
# Disc length: 4704 seconds
#
# Revision: 1
# Processed by: cddbd v1.5.2PL0 Copyright (c) Steve Scherf et al.
# Submitted via: audiograbber 1.83.01
#
DISCID=28125e14
DTITLE=Виктор Петлюра - Самая любимая в мире женщина
DYEAR=1900
DGENRE=Лирика
TTITLE0=Самая любимая в мире женщина
TTITLE1=Мужские слезы
TTITLE2=За тебя
TTITLE3=Разбудите сердце
TTITLE4=До свидания любовь
TTITLE5=Я променял гитару на любовь
TTITLE6=Ты как солнце
TTITLE7=Ром, текила, виски
TTITLE8=Пять минут о мнгом
TTITLE9=Сойду с ума
TTITLE10=Все еще сбудется
TTITLE11=Там где клен шумит
TTITLE12=Я стану ветром
TTITLE13=Друзья
TTITLE14=Золотая моя
TTITLE15=два полюса
TTITLE16=Шереметьево - Борисполь
TTITLE17=Вечер
TTITLE18=Наше лето
TTITLE19=Ключи от Рая
EXTD=
EXTT0=
EXTT1=
EXTT2=
EXTT3=
EXTT4=
EXTT5=
EXTT6=
EXTT7=
EXTT8=
EXTT9=
EXTT10=
EXTT11=
EXTT12=
EXTT13=
EXTT14=
EXTT15=
EXTT16=
EXTT17=
EXTT18=
EXTT19=
PLAYORDER=
